:SAMPLES-PER-SECOND 30
:FULLY-SPECIFIED
:DEGREES
89
root  34.98920831 36.5502365 -14.47926919 10.9257679 3.957441092 3.075683117
lowerback  -7.888850212 2.052109957 2.00323987
upperback  -4.092919827 2.243060112 -3.87887001
thorax  0.4197820127 0.8918899894 -4.965139866
lowerneck  -14.67450047 2.13451004 2.65809989
upperneck  10.72669983 1.458570004 5.085330009
head  5.63575983 1.150390029 1.303820014
lclavicle  0 -4.497500157e-015 -2.743230041e-014
lhumerus  -44.10599899 26.68770027 68.42449951
lradius  -0.4903045595 -6.507048965e-006 27.32780266
lwrist  4.824992743e-007 -3.790274832e-007 -30.94560242
lhand  -3.514383687e-031 -36.98939896 -10.68760014
lfingers  90 7.125020027 -90
lthumb  94.86070251 -25.52003098 101.1658859
rclavicle  0 -4.497500157e-015 -2.743230041e-014
rhumerus  29.66749954 6.463609695 -61.80979919
rradius  -5.16745672e-007 2.214343908e-008 86.91369629
rwrist  1.129822067e-006 0.001802438172 -177.0429993
rhand  -3.068465064e-031 3.95517993 -6.913129807
rfingers  -90 -7.125020027 -90
rthumb  -84.86206818 -9.040447235 -60.22064209
rfemur  -12.78356743 13.59473038 13.87748146
rtibia  -0.8024853468 1.220018148 20.2221508
rfoot  -0.475815177 -17.71750259 -40.92425537
rtoes  4.173820496 19.56943321 -102.2865906
lfemur  -10.32456684 -18.01433945 -18.57817078
ltibia  3.107158422 1.973922968 14.15402222
lfoot  0.4317439497 -28.71345711 31.79807091
ltoes  -8.551943779 -18.1474514 -115.7717514
90
root  34.98777555 36.54921524 -14.4804902 10.9468174 4.144062519 3.098737478
lowerback  -7.879169941 2.072619915 1.998720407
upperback  -4.095829964 2.270809889 -3.899250031
thorax  0.4148269892 0.9055119753 -4.981800079
lowerneck  -14.71500015 2.082859993 2.678139925
upperneck  10.71850014 1.381079912 5.094230175
head  5.641280174 1.114070058 1.296849966
lclavicle  0 -4.497500157e-015 -2.743230041e-014
lhumerus  -44.04629898 26.55010033 68.48259735
lradius  -0.4903865755 -6.507048965e-006 27.36849976
lwrist  4.824992743e-007 -3.790274832e-007 -30.68440056
lhand  -3.512139749e-031 -36.95709991 -10.71920013
lfingers  90 7.125020027 -90
lthumb  94.85256958 -25.55221176 101.1341019
rclavicle  0 -4.497500157e-015 -2.743230041e-014
rhumerus  31.17580032 6.266719818 -61.54359818
rradius  -5.16745672e-007 2.214343908e-008 86.26190186
rwrist  1.129822067e-006 0.001802438172 -176.720993
rhand  -3.069653889e-031 3.751100063 -6.897109985
rfingers  -90 -7.125020027 -90
rthumb  -84.90198517 -9.042194366 -60.41862488
rfemur  -12.80378246 13.54898262 13.90192986
rtibia  -0.8378074169 1.271419048 20.27683449
rfoot  -0.5030460358 -17.59683228 -41.01362991
rtoes  4.170663357 19.56977654 -102.2771759
lfemur  -10.34614372 -18.0855732 -18.57858658
ltibia  3.138865232 1.997902393 14.1295414
lfoot  0.4326414764 -28.74495697 31.71096802
ltoes  -8.508677483 -18.16723824 -115.6329193
91
root  34.98384671 36.5480468 -14.48162559 10.9640131 4.33256197 3.112919092
lowerback  -7.853800297 2.095900059 1.999610186
upperback  -4.106840134 2.300960064 -3.929399967
thorax  0.3936530054 0.9193609953 -5.012129784
lowerneck  -14.76790047 2.027029991 2.710319996
upperneck  10.72000027 1.294909835 5.097740173
head  5.652190208 1.073940039 1.285680056
lclavicle  0 -4.497500157e-015 -2.743230041e-014
lhumerus  -44.00970078 26.43079948 68.51049805
lradius  -0.4904646277 -6.507048965e-006 27.39570045
lwrist  4.824992743e-007 -3.790274832e-007 -30.44139862
lhand  -3.516927536e-031 -36.96749878 -10.66009998
lfingers  90 7.125020027 -90
lthumb  94.84449768 -25.49376488 101.1398392
rclavicle  0 -4.497500157e-015 -2.743230041e-014
rhumerus  32.64979935 6.112249851 -60.57450104
rradius  -5.16745672e-007 2.214343908e-008 85.7858963
rwrist  1.129822067e-006 0.001802438172 -177.0780029
rhand  -3.083975591e-031 3.689779997 -6.684559822
rfingers  -90 -7.125020027 -90
rthumb  -84.81021881 -9.22349453 -60.461586
rfemur  -12.83077526 13.4469471 13.94110489
rtibia  -0.8713960648 1.309294701 20.34509087
rfoot  -0.5370783806 -17.52921295 -41.06665802
rtoes  4.165023327 19.57013702 -102.2603455
lfemur  -10.36184311 -18.19994354 -18.56279755
ltibia  3.168285131 2.026868105 14.10281754
lfoot  0.4418312907 -28.78348732 31.67008209
ltoes  -8.516563416 -18.16364288 -115.6582108
92
root  34.98107129 36.54551769 -14.48527058 10.94633293 4.511610985 3.115646839
lowerback  -7.837069988 2.149770021 1.992000103
upperback  -4.123660088 2.370440006 -3.991039991
thorax  0.3762210011 0.9517549872 -5.06716013
lowerneck  -14.88809967 1.956519961 2.768699884
upperneck  10.7578001 1.172699928 5.126150131
head  5.686580181 1.02026999 1.276059985
lclavicle  0 -4.497500157e-015 -2.743230041e-014
lhumerus  -44.0284996 26.28499985 68.55930328
lradius  -0.4905391634 -6.507048965e-006 27.52529716
lwrist  4.824992743e-007 -3.790274832e-007 -30.21960068
lhand  -3.515262176e-031 -36.98609924 -10.67749977
lfingers  90 7.125020027 -90
lthumb  94.85697174 -25.51019669 101.1613998
rclavicle  0 -4.497500157e-015 -2.743230041e-014
rhumerus  33.98690033 5.751090527 -59.99470139
rradius  -5.16745672e-007 2.214343908e-008 85.23290253
rwrist  1.129822067e-006 0.001802438172 -177.1190033
rhand  -3.082520673e-031 3.81517005 -6.705230236
rfingers  -90 -7.125020027 -90
rthumb  -84.79081726 -9.212733269 -60.34080887
rfemur  -12.79155064 13.34759712 13.9916954
rtibia  -0.8900486827 1.332132459 20.35509109
rfoot  -0.5465834737 -17.48847008 -41.11423492
rtoes  4.150123596 19.57051468 -102.2158813
lfemur  -10.34560299 -18.23865318 -18.54824066
ltibia  3.192579508 2.05825305 14.10034657
lfoot  0.4637647867 -28.85447502 31.60623741
ltoes  -8.520002365 -18.16207123 -115.6692429
93
root  34.97253178 36.54214153 -14.50468799 11.00250149 4.605292797 3.169511318
lowerback  -7.922530174 2.243880033 2.160569906
upperback  -4.083570004 2.488470078 -4.05656004
thorax  0.4866780043 1.011980057 -5.218649864
lowerneck  -14.96459961 1.883700013 2.786079884
upperneck  10.7493 1.061020017 5.158579826
head  5.698400021 0.9690790176 1.274129987
lclavicle  0 -4.497500157e-015 -2.743230041e-014
lhumerus  -43.96229935 26.11520004 68.62640381
lradius  -0.4906105399 -6.507048965e-006 27.55730057
lwrist  4.824992743e-007 -3.790274832e-007 -29.93199921
lhand  -3.518274893e-031 -37.04510117 -10.63290024
lfingers  90 7.125020027 -90
lthumb  94.87494659 -25.46427536 101.2202225
rclavicle  0 -4.497500157e-015 -2.743230041e-014
rhumerus  35.32379913 5.455049992 -59.50130081
rradius  -5.16745672e-007 2.214343908e-008 84.62950134
rwrist  1.129822067e-006 0.001802438172 -177.0215454
rhand  -3.068049448e-031 3.889300108 -6.919859886
rfingers  -90 -7.125020027 -90
rthumb  -84.88097382 -9.030612946 -60.2854805
rfemur  -12.93669224 13.30845833 14.00047112
rtibia  -0.9720106125 1.322412372 20.53892899
rfoot  -0.6320171356 -17.49865913 -41.16921616
rtoes  4.189779758 19.57090569 -102.3342285
lfemur  -10.42914677 -18.4861412 -18.54594803
ltibia  3.226267099 2.021105528 14.09187698
lfoot  0.5130149722 -28.73337936 31.75747299
ltoes  -8.451836586 -18.19304657 -115.450737
94
root  34.9650766 36.53952831 -14.51685297 11.0502615 4.752630234 3.247967243
lowerback  -7.982889652 2.325229883 2.337289333
upperback  -4.067719936 2.588619947 -4.073209763
thorax  0.5553129911 1.062960029 -5.325860023
lowerneck  -14.94260025 1.781309962 2.614229918
upperneck  10.68280029 0.9476769567 5.273849964
head  5.673669815 0.9134169817 1.32693994
lclavicle  0 -4.497500157e-015 -2.743230041e-014
lhumerus  -43.89260101 26.23940086 68.55110168
lradius  -0.4906791747 -6.507048965e-006 27.3784008
lwrist  4.824992743e-007 -3.790274832e-007 -30.13680077
lhand  -3.517234117e-031 -37.04869843 -10.64490032
lfingers  90 7.125020027 -90
lthumb  94.87930298 -25.47603416 101.2253342
rclavicle  0 -4.497500157e-015 -2.743230041e-014
rhumerus  36.53859711 5.207531452 -58.79740143
rradius  -5.16745672e-007 2.214343908e-008 84.10970306
rwrist  1.129822067e-006 0.001802438172 -177.1562195
rhand  -3.072766787e-031 4.158299923 -6.847420216
rfingers  -90 -7.125020027 -90
rthumb  -84.78086853 -9.109478951 -60.01714325
rfemur  -13.0496664 13.24922848 13.98490906
rtibia  -1.057101488 1.305003643 20.71693039
rfoot  -0.7360476255 -17.5043602 -41.28129959
rtoes  4.200630188 19.57130623 -102.3666153
lfemur  -10.45068932 -18.68740845 -18.60493279
ltibia  3.305393696 1.992676973 14.00455952
lfoot  0.5390836596 -28.61025238 31.80510521
ltoes  -8.453364372 -18.19235611 -115.4556274
